<mxfile host="app.diagrams.net" modified="2021-10-29T12:43:45.586Z" agent="5.0 (Macintosh; Intel Mac OS X 10_15_7) AppleWebKit/605.1.15 (KHTML, like Gecko) Version/15.1 Safari/605.1.15" etag="cI41BifiZTvFthbJlgQf" version="15.6.2" type="github">
  <diagram id="C5RBs43oDa-KdzZeNtuy" name="Page-1">
    <mxGraphModel dx="3040" dy="2143" grid="1" gridSize="10" guides="1" tooltips="1" connect="1" arrows="1" fold="1" page="1" pageScale="1" pageWidth="827" pageHeight="1169" math="0" shadow="0">
      <root>
        <mxCell id="WIyWlLk6GJQsqaUBKTNV-0" />
        <mxCell id="WIyWlLk6GJQsqaUBKTNV-1" parent="WIyWlLk6GJQsqaUBKTNV-0" />
        <mxCell id="VVGWKkIphgC3ftQ22iEe-24" value="" style="whiteSpace=wrap;html=1;aspect=fixed;fillColor=#dae8fc;strokeColor=#6c8ebf;" vertex="1" parent="WIyWlLk6GJQsqaUBKTNV-1">
          <mxGeometry x="35" y="30" width="1230" height="1230" as="geometry" />
        </mxCell>
        <mxCell id="WIyWlLk6GJQsqaUBKTNV-2" value="" style="rounded=0;html=1;jettySize=auto;orthogonalLoop=1;fontSize=11;endArrow=block;endFill=0;endSize=8;strokeWidth=1;shadow=0;labelBackgroundColor=none;edgeStyle=orthogonalEdgeStyle;" parent="WIyWlLk6GJQsqaUBKTNV-1" source="WIyWlLk6GJQsqaUBKTNV-3" target="WIyWlLk6GJQsqaUBKTNV-6" edge="1">
          <mxGeometry relative="1" as="geometry" />
        </mxCell>
        <mxCell id="WIyWlLk6GJQsqaUBKTNV-3" value="アプリを開く" style="rounded=1;whiteSpace=wrap;html=1;fontSize=12;glass=0;strokeWidth=1;shadow=0;" parent="WIyWlLk6GJQsqaUBKTNV-1" vertex="1">
          <mxGeometry x="160" y="80" width="120" height="40" as="geometry" />
        </mxCell>
        <mxCell id="WIyWlLk6GJQsqaUBKTNV-4" value="はい" style="rounded=0;html=1;jettySize=auto;orthogonalLoop=1;fontSize=11;endArrow=block;endFill=0;endSize=8;strokeWidth=1;shadow=0;labelBackgroundColor=none;edgeStyle=orthogonalEdgeStyle;entryX=0.5;entryY=0;entryDx=0;entryDy=0;" parent="WIyWlLk6GJQsqaUBKTNV-1" source="WIyWlLk6GJQsqaUBKTNV-6" target="WIyWlLk6GJQsqaUBKTNV-11" edge="1">
          <mxGeometry y="20" relative="1" as="geometry">
            <mxPoint as="offset" />
            <mxPoint x="220" y="320" as="targetPoint" />
          </mxGeometry>
        </mxCell>
        <mxCell id="WIyWlLk6GJQsqaUBKTNV-5" value="いいえ" style="edgeStyle=orthogonalEdgeStyle;rounded=0;html=1;jettySize=auto;orthogonalLoop=1;fontSize=11;endArrow=block;endFill=0;endSize=8;strokeWidth=1;shadow=0;labelBackgroundColor=none;" parent="WIyWlLk6GJQsqaUBKTNV-1" source="WIyWlLk6GJQsqaUBKTNV-6" target="WIyWlLk6GJQsqaUBKTNV-7" edge="1">
          <mxGeometry y="10" relative="1" as="geometry">
            <mxPoint as="offset" />
          </mxGeometry>
        </mxCell>
        <mxCell id="WIyWlLk6GJQsqaUBKTNV-6" value="アカウントを持っている？" style="rhombus;whiteSpace=wrap;html=1;shadow=0;fontFamily=Helvetica;fontSize=12;align=center;strokeWidth=1;spacing=6;spacingTop=-4;" parent="WIyWlLk6GJQsqaUBKTNV-1" vertex="1">
          <mxGeometry x="115" y="150" width="210" height="100" as="geometry" />
        </mxCell>
        <mxCell id="VVGWKkIphgC3ftQ22iEe-2" style="edgeStyle=orthogonalEdgeStyle;rounded=0;orthogonalLoop=1;jettySize=auto;html=1;entryX=1;entryY=0.5;entryDx=0;entryDy=0;" edge="1" parent="WIyWlLk6GJQsqaUBKTNV-1" source="WIyWlLk6GJQsqaUBKTNV-7" target="VVGWKkIphgC3ftQ22iEe-4">
          <mxGeometry relative="1" as="geometry">
            <mxPoint x="280" y="490" as="targetPoint" />
            <Array as="points">
              <mxPoint x="520" y="510" />
            </Array>
          </mxGeometry>
        </mxCell>
        <mxCell id="WIyWlLk6GJQsqaUBKTNV-7" value="登録" style="rounded=1;whiteSpace=wrap;html=1;fontSize=12;glass=0;strokeWidth=1;shadow=0;" parent="WIyWlLk6GJQsqaUBKTNV-1" vertex="1">
          <mxGeometry x="460" y="180" width="120" height="40" as="geometry" />
        </mxCell>
        <mxCell id="VVGWKkIphgC3ftQ22iEe-1" style="edgeStyle=orthogonalEdgeStyle;rounded=0;orthogonalLoop=1;jettySize=auto;html=1;" edge="1" parent="WIyWlLk6GJQsqaUBKTNV-1" source="WIyWlLk6GJQsqaUBKTNV-11" target="VVGWKkIphgC3ftQ22iEe-4">
          <mxGeometry relative="1" as="geometry">
            <mxPoint x="220" y="470" as="targetPoint" />
          </mxGeometry>
        </mxCell>
        <mxCell id="WIyWlLk6GJQsqaUBKTNV-11" value="ログイン" style="rounded=1;whiteSpace=wrap;html=1;fontSize=12;glass=0;strokeWidth=1;shadow=0;" parent="WIyWlLk6GJQsqaUBKTNV-1" vertex="1">
          <mxGeometry x="160" y="360" width="120" height="40" as="geometry" />
        </mxCell>
        <mxCell id="VVGWKkIphgC3ftQ22iEe-8" style="edgeStyle=orthogonalEdgeStyle;rounded=0;orthogonalLoop=1;jettySize=auto;html=1;" edge="1" parent="WIyWlLk6GJQsqaUBKTNV-1" source="VVGWKkIphgC3ftQ22iEe-3" target="VVGWKkIphgC3ftQ22iEe-7">
          <mxGeometry relative="1" as="geometry" />
        </mxCell>
        <mxCell id="VVGWKkIphgC3ftQ22iEe-3" value="パーティー作成" style="rounded=1;whiteSpace=wrap;html=1;fontSize=12;glass=0;strokeWidth=1;shadow=0;" vertex="1" parent="WIyWlLk6GJQsqaUBKTNV-1">
          <mxGeometry x="160" y="620" width="120" height="40" as="geometry" />
        </mxCell>
        <mxCell id="VVGWKkIphgC3ftQ22iEe-5" style="edgeStyle=orthogonalEdgeStyle;rounded=0;orthogonalLoop=1;jettySize=auto;html=1;" edge="1" parent="WIyWlLk6GJQsqaUBKTNV-1" source="VVGWKkIphgC3ftQ22iEe-4" target="VVGWKkIphgC3ftQ22iEe-3">
          <mxGeometry relative="1" as="geometry" />
        </mxCell>
        <mxCell id="VVGWKkIphgC3ftQ22iEe-4" value="ホーム画面" style="ellipse;whiteSpace=wrap;html=1;aspect=fixed;" vertex="1" parent="WIyWlLk6GJQsqaUBKTNV-1">
          <mxGeometry x="180" y="470" width="80" height="80" as="geometry" />
        </mxCell>
        <mxCell id="VVGWKkIphgC3ftQ22iEe-9" style="edgeStyle=orthogonalEdgeStyle;rounded=0;orthogonalLoop=1;jettySize=auto;html=1;entryX=0.5;entryY=0;entryDx=0;entryDy=0;" edge="1" parent="WIyWlLk6GJQsqaUBKTNV-1" source="VVGWKkIphgC3ftQ22iEe-7" target="VVGWKkIphgC3ftQ22iEe-12">
          <mxGeometry relative="1" as="geometry">
            <mxPoint x="410" y="860" as="targetPoint" />
          </mxGeometry>
        </mxCell>
        <mxCell id="VVGWKkIphgC3ftQ22iEe-10" style="edgeStyle=orthogonalEdgeStyle;rounded=0;orthogonalLoop=1;jettySize=auto;html=1;" edge="1" parent="WIyWlLk6GJQsqaUBKTNV-1" source="VVGWKkIphgC3ftQ22iEe-7">
          <mxGeometry relative="1" as="geometry">
            <mxPoint x="220" y="990" as="targetPoint" />
          </mxGeometry>
        </mxCell>
        <mxCell id="VVGWKkIphgC3ftQ22iEe-7" value="複数人でイベントに参加する？" style="rhombus;whiteSpace=wrap;html=1;shadow=0;fontFamily=Helvetica;fontSize=12;align=center;strokeWidth=1;spacing=6;spacingTop=-4;" vertex="1" parent="WIyWlLk6GJQsqaUBKTNV-1">
          <mxGeometry x="115" y="740" width="210" height="100" as="geometry" />
        </mxCell>
        <mxCell id="VVGWKkIphgC3ftQ22iEe-15" style="edgeStyle=orthogonalEdgeStyle;rounded=0;orthogonalLoop=1;jettySize=auto;html=1;entryX=0.5;entryY=0;entryDx=0;entryDy=0;" edge="1" parent="WIyWlLk6GJQsqaUBKTNV-1" source="VVGWKkIphgC3ftQ22iEe-12" target="VVGWKkIphgC3ftQ22iEe-16">
          <mxGeometry relative="1" as="geometry">
            <mxPoint x="220" y="990" as="targetPoint" />
          </mxGeometry>
        </mxCell>
        <mxCell id="VVGWKkIphgC3ftQ22iEe-12" value="パーティーに招待する" style="rounded=1;whiteSpace=wrap;html=1;fontSize=12;glass=0;strokeWidth=1;shadow=0;" vertex="1" parent="WIyWlLk6GJQsqaUBKTNV-1">
          <mxGeometry x="354" y="860" width="120" height="40" as="geometry" />
        </mxCell>
        <mxCell id="VVGWKkIphgC3ftQ22iEe-17" value="いいえ" style="edgeStyle=orthogonalEdgeStyle;rounded=0;orthogonalLoop=1;jettySize=auto;html=1;" edge="1" parent="WIyWlLk6GJQsqaUBKTNV-1" source="VVGWKkIphgC3ftQ22iEe-16" target="VVGWKkIphgC3ftQ22iEe-21">
          <mxGeometry relative="1" as="geometry">
            <mxPoint x="460" y="1040" as="targetPoint" />
          </mxGeometry>
        </mxCell>
        <mxCell id="VVGWKkIphgC3ftQ22iEe-20" value="はい" style="edgeStyle=orthogonalEdgeStyle;rounded=0;orthogonalLoop=1;jettySize=auto;html=1;" edge="1" parent="WIyWlLk6GJQsqaUBKTNV-1" source="VVGWKkIphgC3ftQ22iEe-16" target="VVGWKkIphgC3ftQ22iEe-19">
          <mxGeometry relative="1" as="geometry" />
        </mxCell>
        <mxCell id="VVGWKkIphgC3ftQ22iEe-16" value="クレジットカード&lt;br&gt;を登録している？" style="rhombus;whiteSpace=wrap;html=1;shadow=0;fontFamily=Helvetica;fontSize=12;align=center;strokeWidth=1;spacing=6;spacingTop=-4;" vertex="1" parent="WIyWlLk6GJQsqaUBKTNV-1">
          <mxGeometry x="115" y="990" width="210" height="100" as="geometry" />
        </mxCell>
        <mxCell id="VVGWKkIphgC3ftQ22iEe-19" value="空いている日を選択" style="rounded=1;whiteSpace=wrap;html=1;fontSize=12;glass=0;strokeWidth=1;shadow=0;" vertex="1" parent="WIyWlLk6GJQsqaUBKTNV-1">
          <mxGeometry x="160" y="1190" width="120" height="40" as="geometry" />
        </mxCell>
        <mxCell id="VVGWKkIphgC3ftQ22iEe-21" value="クレジット情報入力" style="rounded=1;whiteSpace=wrap;html=1;fontSize=12;glass=0;strokeWidth=1;shadow=0;" vertex="1" parent="WIyWlLk6GJQsqaUBKTNV-1">
          <mxGeometry x="460" y="1020" width="120" height="40" as="geometry" />
        </mxCell>
        <mxCell id="VVGWKkIphgC3ftQ22iEe-25" value="&lt;b&gt;&lt;font style=&quot;font-size: 24px&quot;&gt;ユーザー&lt;/font&gt;&lt;/b&gt;" style="text;html=1;strokeColor=none;fillColor=none;align=center;verticalAlign=middle;whiteSpace=wrap;rounded=0;" vertex="1" parent="WIyWlLk6GJQsqaUBKTNV-1">
          <mxGeometry x="1100" y="81" width="120" height="39" as="geometry" />
        </mxCell>
        <mxCell id="VVGWKkIphgC3ftQ22iEe-26" value="" style="whiteSpace=wrap;html=1;aspect=fixed;fontSize=24;fillColor=#f8cecc;strokeColor=#b85450;" vertex="1" parent="WIyWlLk6GJQsqaUBKTNV-1">
          <mxGeometry x="35" y="1330" width="1240" height="1240" as="geometry" />
        </mxCell>
        <mxCell id="VVGWKkIphgC3ftQ22iEe-35" value="はい" style="edgeStyle=orthogonalEdgeStyle;rounded=0;orthogonalLoop=1;jettySize=auto;html=1;fontSize=12;" edge="1" parent="WIyWlLk6GJQsqaUBKTNV-1" source="VVGWKkIphgC3ftQ22iEe-30" target="VVGWKkIphgC3ftQ22iEe-34">
          <mxGeometry relative="1" as="geometry" />
        </mxCell>
        <mxCell id="VVGWKkIphgC3ftQ22iEe-38" value="いいえ" style="edgeStyle=orthogonalEdgeStyle;rounded=0;orthogonalLoop=1;jettySize=auto;html=1;fontSize=12;" edge="1" parent="WIyWlLk6GJQsqaUBKTNV-1" source="VVGWKkIphgC3ftQ22iEe-30" target="VVGWKkIphgC3ftQ22iEe-37">
          <mxGeometry relative="1" as="geometry" />
        </mxCell>
        <mxCell id="VVGWKkIphgC3ftQ22iEe-30" value="パーティに複数人&lt;br&gt;がいるか？" style="rhombus;whiteSpace=wrap;html=1;shadow=0;fontFamily=Helvetica;fontSize=12;align=center;strokeWidth=1;spacing=6;spacingTop=-4;" vertex="1" parent="WIyWlLk6GJQsqaUBKTNV-1">
          <mxGeometry x="115" y="1380" width="210" height="100" as="geometry" />
        </mxCell>
        <mxCell id="VVGWKkIphgC3ftQ22iEe-32" style="edgeStyle=orthogonalEdgeStyle;rounded=0;orthogonalLoop=1;jettySize=auto;html=1;fontSize=12;" edge="1" parent="WIyWlLk6GJQsqaUBKTNV-1" source="VVGWKkIphgC3ftQ22iEe-19" target="VVGWKkIphgC3ftQ22iEe-30">
          <mxGeometry relative="1" as="geometry" />
        </mxCell>
        <mxCell id="VVGWKkIphgC3ftQ22iEe-43" style="edgeStyle=orthogonalEdgeStyle;rounded=0;orthogonalLoop=1;jettySize=auto;html=1;entryX=1;entryY=0.5;entryDx=0;entryDy=0;fontSize=24;" edge="1" parent="WIyWlLk6GJQsqaUBKTNV-1" source="VVGWKkIphgC3ftQ22iEe-34" target="VVGWKkIphgC3ftQ22iEe-41">
          <mxGeometry relative="1" as="geometry" />
        </mxCell>
        <mxCell id="VVGWKkIphgC3ftQ22iEe-34" value="全員共通のジャンル、空き日で体験を検索" style="rounded=1;whiteSpace=wrap;html=1;fontSize=12;glass=0;strokeWidth=1;shadow=0;" vertex="1" parent="WIyWlLk6GJQsqaUBKTNV-1">
          <mxGeometry x="370" y="1570" width="140" height="80" as="geometry" />
        </mxCell>
        <mxCell id="VVGWKkIphgC3ftQ22iEe-42" style="edgeStyle=orthogonalEdgeStyle;rounded=0;orthogonalLoop=1;jettySize=auto;html=1;fontSize=24;" edge="1" parent="WIyWlLk6GJQsqaUBKTNV-1" source="VVGWKkIphgC3ftQ22iEe-37" target="VVGWKkIphgC3ftQ22iEe-41">
          <mxGeometry relative="1" as="geometry" />
        </mxCell>
        <mxCell id="VVGWKkIphgC3ftQ22iEe-37" value="ユーザーのジャンル、空き日で体験を検索" style="rounded=1;whiteSpace=wrap;html=1;fontSize=12;glass=0;strokeWidth=1;shadow=0;" vertex="1" parent="WIyWlLk6GJQsqaUBKTNV-1">
          <mxGeometry x="150" y="1570" width="140" height="80" as="geometry" />
        </mxCell>
        <mxCell id="VVGWKkIphgC3ftQ22iEe-39" value="&lt;font style=&quot;font-size: 24px&quot;&gt;&lt;b&gt;hitoffle運営&lt;/b&gt;&lt;/font&gt;" style="text;html=1;strokeColor=none;fillColor=none;align=center;verticalAlign=middle;whiteSpace=wrap;rounded=0;fontSize=12;" vertex="1" parent="WIyWlLk6GJQsqaUBKTNV-1">
          <mxGeometry x="990" y="2030" width="240" height="80" as="geometry" />
        </mxCell>
        <mxCell id="VVGWKkIphgC3ftQ22iEe-48" style="edgeStyle=orthogonalEdgeStyle;rounded=0;orthogonalLoop=1;jettySize=auto;html=1;fontSize=24;exitX=0.5;exitY=1;exitDx=0;exitDy=0;" edge="1" parent="WIyWlLk6GJQsqaUBKTNV-1" source="VVGWKkIphgC3ftQ22iEe-41" target="VVGWKkIphgC3ftQ22iEe-47">
          <mxGeometry relative="1" as="geometry" />
        </mxCell>
        <mxCell id="VVGWKkIphgC3ftQ22iEe-41" value="イベントを申し込む" style="rounded=1;whiteSpace=wrap;html=1;fontSize=12;glass=0;strokeWidth=1;shadow=0;" vertex="1" parent="WIyWlLk6GJQsqaUBKTNV-1">
          <mxGeometry x="150" y="1790" width="140" height="80" as="geometry" />
        </mxCell>
        <mxCell id="VVGWKkIphgC3ftQ22iEe-50" style="edgeStyle=orthogonalEdgeStyle;rounded=0;orthogonalLoop=1;jettySize=auto;html=1;fontSize=24;" edge="1" parent="WIyWlLk6GJQsqaUBKTNV-1" source="VVGWKkIphgC3ftQ22iEe-47" target="VVGWKkIphgC3ftQ22iEe-49">
          <mxGeometry relative="1" as="geometry" />
        </mxCell>
        <mxCell id="VVGWKkIphgC3ftQ22iEe-47" value="ユーザーのクレジットからイベントの料金＋手数料分を落とす" style="rounded=1;whiteSpace=wrap;html=1;fontSize=12;glass=0;strokeWidth=1;shadow=0;" vertex="1" parent="WIyWlLk6GJQsqaUBKTNV-1">
          <mxGeometry x="850" y="1855" width="140" height="80" as="geometry" />
        </mxCell>
        <mxCell id="VVGWKkIphgC3ftQ22iEe-54" style="edgeStyle=orthogonalEdgeStyle;rounded=0;orthogonalLoop=1;jettySize=auto;html=1;fontSize=24;" edge="1" parent="WIyWlLk6GJQsqaUBKTNV-1" source="VVGWKkIphgC3ftQ22iEe-49" target="VVGWKkIphgC3ftQ22iEe-53">
          <mxGeometry relative="1" as="geometry" />
        </mxCell>
        <mxCell id="VVGWKkIphgC3ftQ22iEe-49" value="ユーザーにイベントの大まかな情報を通知" style="rounded=1;whiteSpace=wrap;html=1;fontSize=12;glass=0;strokeWidth=1;shadow=0;" vertex="1" parent="WIyWlLk6GJQsqaUBKTNV-1">
          <mxGeometry x="850" y="1350" width="140" height="80" as="geometry" />
        </mxCell>
        <mxCell id="VVGWKkIphgC3ftQ22iEe-53" value="ユーザー（単数or複数）がイベントに参加！" style="rounded=1;whiteSpace=wrap;html=1;fontSize=12;glass=0;strokeWidth=1;shadow=0;" vertex="1" parent="WIyWlLk6GJQsqaUBKTNV-1">
          <mxGeometry x="850" y="1150" width="140" height="80" as="geometry" />
        </mxCell>
      </root>
    </mxGraphModel>
  </diagram>
</mxfile>
